<svg width="102" height="40" viewBox="0 0 102 40" fill="none" xmlns="http://www.w3.org/2000/svg">
<g clip-path="url(#clip0_105_1903)">
<path d="M95.2837 10.7058C95.2837 8.81519 96.7754 7.28711 98.6127 7.28711C100.456 7.28711 101.955 8.82158 101.955 10.7058C101.955 12.5964 100.456 14.1307 98.6127 14.1307C96.7754 14.1307 95.2837 12.5964 95.2837 10.7058ZM95.8215 10.7058C95.8215 12.3114 97.0699 13.6258 98.6127 13.6258C100.156 13.6258 101.417 12.3114 101.417 10.7058C101.417 9.10004 100.156 7.79214 98.6127 7.79214C97.0699 7.79214 95.8215 9.10653 95.8215 10.7058ZM100.124 9.90291C100.124 10.5632 99.6883 10.9582 99.1697 11.0943L100.297 12.7647H99.5155L98.4591 11.2043H97.9342V12.7647H97.2812V8.64678H98.6576C99.6499 8.64678 100.124 9.21657 100.124 9.90291ZM98.632 9.28784H97.9342V10.5762L98.6256 10.5697C99.253 10.5632 99.4642 10.2266 99.4642 9.9158C99.4642 9.61795 99.2913 9.28784 98.632 9.28784Z" fill="#063647"/>
<path d="M20.6428 11.1348C18.5361 8.36156 15.7411 6.71689 12.2368 6.59378C7.21664 6.41741 3.47048 8.62324 1.26418 13.1758C-0.521633 16.8607 -0.280814 20.5715 1.80942 24.1148C2.85226 25.8825 4.45766 27.1498 5.84547 28.6087C5.96686 28.7363 6.22896 28.7714 6.42653 28.7736C7.71077 28.7877 8.99524 28.7809 10.2796 28.7809H14.8288C14.9847 28.7634 15.1745 28.6771 14.7999 28.3042H14.8012C14.7412 28.2544 14.6825 28.2033 14.6279 28.148C12.3606 25.8511 10.07 23.5766 7.84411 21.2392C6.45642 19.7821 6.32489 17.6146 7.12058 15.9777C8.35088 13.4466 11.0986 12.4747 13.633 13.6376C14.9716 14.2518 15.8419 15.3155 16.2267 16.8556H10.5417C10.2647 16.8556 10.2064 16.9858 10.1962 17.0642V22.2618C10.1966 22.3071 10.2148 22.6118 10.6259 22.6118C14.051 22.6136 17.476 22.6136 20.9011 22.6138C21.7057 22.6138 22.2224 22.2196 22.4514 21.4312C22.4574 21.4105 22.4641 21.39 22.4696 21.3692C23.4306 17.6714 22.9755 14.2053 20.6428 11.1348Z" fill="#063647"/>
<path d="M47.2418 28.3552L47.242 28.3555C47.24 24.7983 47.3121 21.2387 47.2084 17.6844C47.022 11.2983 41.8373 6.60493 35.9507 6.57027V6.56935C35.931 6.56925 35.9114 6.56979 35.8918 6.56981C35.8721 6.56979 35.8525 6.56925 35.8328 6.56935V6.57027C29.9462 6.60493 24.7615 11.2983 24.5751 17.6844C24.4704 21.2722 24.5451 24.8654 24.5416 28.4562C24.5416 28.4562 24.5626 28.7598 24.9147 28.7598H30.8649C30.8649 28.7598 31.0692 28.7411 31.0692 28.5194V27.9882C31.0693 24.8298 31.0332 21.6708 31.0924 18.5136C31.109 17.6305 31.2258 16.6608 31.6103 15.8907C32.5052 14.0987 33.9759 13.1858 35.8918 13.1786C37.8076 13.1858 39.2784 14.0987 40.1732 15.8907C40.5577 16.6608 40.6745 17.6305 40.6911 18.5136C40.7503 21.6708 40.7143 24.8298 40.7143 27.9882V28.5067C40.7143 28.5067 40.7461 28.7598 40.9671 28.7598H47.0067C47.0921 28.7493 47.2418 28.6843 47.2418 28.3552Z" fill="#063647"/>
<path d="M68.4881 28.737C68.5505 28.7322 68.613 28.7271 68.6754 28.7219C68.7958 28.6806 68.9295 28.5607 68.9295 28.2291V22.7355C68.9295 22.1379 68.4619 22.1983 68.4619 22.1983C67.7358 22.1595 67.0067 22.1778 66.2787 22.181C64.9455 22.1869 63.7923 21.7701 62.7753 20.8604C61.166 19.4212 60.6208 16.7085 61.8253 14.917C62.5608 13.823 63.5514 12.8966 64.472 11.9386C65.6966 10.6644 66.9494 9.41704 68.2429 8.11649C68.7609 7.54922 68.5931 7.4118 68.4203 7.3837C65.6328 7.38092 62.8453 7.37839 60.0578 7.38579C59.8997 7.38621 59.6938 7.42565 59.591 7.52904C58.3671 8.76044 57.0431 9.90689 56.1972 11.4703C56.0085 11.819 55.8291 12.1729 55.6471 12.5253C55.4792 12.7931 55.4454 12.2061 55.4454 12.2061V0.344335C55.4454 0.0325545 55.1648 0 55.1648 0H49.4082C49.1302 0 49.0157 0.119391 49 0.34902V28.4059C49 28.4059 49.0124 28.7315 49.3458 28.7315H55.2867C55.384 28.7102 55.5107 28.6199 55.5107 28.2923V21.6686C58.8726 28.2589 63.812 29.097 68.4881 28.737Z" fill="#063647"/>
<path d="M93.2979 8.10614C93.2979 7.99918 93.2931 7.89219 93.2872 7.78459C93.2584 7.50866 93.1081 7.43348 92.9977 7.41602H87.1953C86.8247 7.41602 86.7915 7.63115 86.7893 7.69095C86.7894 7.69619 86.7894 7.70129 86.7894 7.70651C86.7897 7.90438 86.79 8.09258 86.7888 8.27984C86.7682 11.6973 86.8186 15.1171 86.7046 18.5314C86.6064 21.4731 83.5676 23.6036 80.7254 22.8631C78.4707 22.2757 77.0357 20.3631 77.0273 17.8937C77.0164 14.6699 77.0246 11.4459 77.0245 8.222V7.84554C77.0245 7.47397 76.8073 7.42552 76.7248 7.4205H71.0367C70.5019 7.4205 70.4737 7.94682 70.4737 7.94682C70.4711 11.214 70.466 14.4812 70.4768 17.7484C70.4789 18.3955 70.4889 19.0514 70.5906 19.6878C71.1327 23.0783 72.8027 25.7638 75.6284 27.6843C78.0583 29.3358 80.7453 29.9121 83.6244 29.4298C84.6633 29.2558 85.6717 28.8962 86.7152 28.6156C86.8016 29.5308 86.5115 30.4098 85.992 31.1821C85.0375 32.6012 83.6871 33.3915 81.9497 33.4654V33.4984H76.7559C76.1962 33.4984 76.0841 33.8287 76.0657 34.0195V39.3611C76.1108 39.9666 76.5625 39.9986 76.6426 39.9996H82.1208V39.9547C84.16 39.9749 86.0325 39.4483 87.7024 38.3792C91.3872 36.0201 93.3022 32.6162 93.3001 28.1637C93.2969 21.4778 93.2996 14.792 93.2979 8.10614Z" fill="#063647"/>
</g>
<defs>
<clipPath id="clip0_105_1903">
<rect width="101.886" height="40" fill="white" transform="translate(0.0683594)"/>
</clipPath>
</defs>
</svg>
